HIERARCHY
ROOT hips
{
	OFFSET 0.000000 104.274902 0.000000
	CHANNELS 6 Xposition Yposition Zposition Xrotation Yrotation Zrotation
	JOINT spine
	{
		OFFSET 0.000000 10.181549 0.131524
		CHANNELS 6 Xposition Yposition Zposition Xrotation Yrotation Zrotation
		JOINT chest
		{
			OFFSET 0.000000 9.893990 -1.470706
			CHANNELS 3 Xrotation Yrotation Zrotation
			JOINT upperChest
			{
				OFFSET 0.000000 9.220787 -1.370637
				CHANNELS 3 Xrotation Yrotation Zrotation
				JOINT neck
				{
					OFFSET 0.000000 16.740372 -2.049022
					CHANNELS 6 Xposition Yposition Zposition Xrotation Yrotation Zrotation
					JOINT head
					{
						OFFSET 0.000000 9.617859 1.684976
						CHANNELS 6 Xposition Yposition Zposition Xrotation Yrotation Zrotation
						JOINT headEnd
						{
							OFFSET 0.000000 22.037384 7.501072
							CHANNELS 6 Xposition Yposition Zposition Xrotation Yrotation Zrotation
							End Site
							{
								OFFSET 0.000000 23.106567 -2.828246
							}
						}
					}
				}
				JOINT rightShoulder
				{
					OFFSET -4.570000 11.014877 -2.160840
					CHANNELS 6 Xposition Yposition Zposition Xrotation Yrotation Zrotation
					JOINT rightUpperArm
					{
						OFFSET -10.592867 -0.524796 -2.232105
						CHANNELS 3 Xrotation Yrotation Zrotation
						JOINT rightLowerArm
						{
							OFFSET -27.841497 0.000000 -0.000002
							CHANNELS 3 Xrotation Yrotation Zrotation
							JOINT rightHand
							{
								OFFSET -28.328812 0.000000 -0.000001
								CHANNELS 3 Xrotation Yrotation Zrotation
								JOINT rightThumbProximal
								{
									OFFSET -2.464798 -1.573990 2.681911
									CHANNELS 6 Xposition Yposition Zposition Xrotation Yrotation Zrotation
									JOINT rightThumbIntermediate
									{
										OFFSET -3.244781 -1.873383 1.873376
										CHANNELS 3 Xrotation Yrotation Zrotation
										JOINT rightThumbDistal
										{
											OFFSET -2.646263 -1.527817 1.527818
											CHANNELS 6 Xposition Yposition Zposition Xrotation Yrotation Zrotation
											JOINT rightHandThumb4
											{
												OFFSET -1.994591 -1.151581 1.151575
												CHANNELS 6 Xposition Yposition Zposition Xrotation Yrotation Zrotation
												End Site
												{
													OFFSET -1.860176 -1.142715 1.365483
												}
											}
										}
									}
								}
								JOINT rightIndexProximal
								{
									OFFSET -9.108299 -0.517883 2.259803
									CHANNELS 6 Xposition Yposition Zposition Xrotation Yrotation Zrotation
									JOINT rightIndexIntermediate
									{
										OFFSET -3.699997 0.000000 0.000000
										CHANNELS 3 Xrotation Yrotation Zrotation
										JOINT rightIndexDistal
										{
											OFFSET -2.850006 0.000000 0.000000
											CHANNELS 3 Xrotation Yrotation Zrotation
											JOINT rightHandIndex4
											{
												OFFSET -2.772194 0.000000 0.000000
												CHANNELS 3 Xrotation Yrotation Zrotation
												End Site
												{
													OFFSET -2.772202 0.000000 -0.000484
												}
											}
										}
									}
								}
								JOINT rightMiddleProximal
								{
									OFFSET -9.532501 0.000000 -0.000000
									CHANNELS 6 Xposition Yposition Zposition Xrotation Yrotation Zrotation
									JOINT rightMiddleIntermediate
									{
										OFFSET -3.699997 0.000000 0.000000
										CHANNELS 3 Xrotation Yrotation Zrotation
										JOINT rightMiddleDistal
										{
											OFFSET -2.949997 0.000000 0.000000
											CHANNELS 3 Xrotation Yrotation Zrotation
											JOINT rightHandMiddle4
											{
												OFFSET -2.946594 0.000000 0.000000
												CHANNELS 3 Xrotation Yrotation Zrotation
												End Site
												{
													OFFSET -2.946602 0.000000 -0.000982
												}
											}
										}
									}
								}
								JOINT rightRingProximal
								{
									OFFSET -9.103600 -0.043106 -1.865100
									CHANNELS 6 Xposition Yposition Zposition Xrotation Yrotation Zrotation
									JOINT rightRingIntermediate
									{
										OFFSET -3.379303 0.000000 0.000000
										CHANNELS 3 Xrotation Yrotation Zrotation
										JOINT rightRingDistal
										{
											OFFSET -2.889694 0.000000 0.000000
											CHANNELS 3 Xrotation Yrotation Zrotation
											JOINT rightHandRing4
											{
												OFFSET -2.638802 0.000000 0.000000
												CHANNELS 3 Xrotation Yrotation Zrotation
												End Site
												{
													OFFSET -2.638802 0.000000 0.004218
												}
											}
										}
									}
								}
								JOINT rightLittleProximal
								{
									OFFSET -8.076698 -0.486725 -3.806299
									CHANNELS 6 Xposition Yposition Zposition Xrotation Yrotation Zrotation
									JOINT rightLittleIntermediate
									{
										OFFSET -3.600006 0.000000 0.000000
										CHANNELS 3 Xrotation Yrotation Zrotation
										JOINT rightLittleDistal
										{
											OFFSET -2.099998 0.000000 0.000000
											CHANNELS 3 Xrotation Yrotation Zrotation
											JOINT rightHandPinky4
											{
												OFFSET -2.115791 0.000000 0.000000
												CHANNELS 3 Xrotation Yrotation Zrotation
												End Site
												{
													OFFSET -2.115799 0.000000 0.000174
												}
											}
										}
									}
								}
							}
						}
					}
				}
				JOINT leftShoulder
				{
					OFFSET 4.570400 11.014679 -2.160816
					CHANNELS 6 Xposition Yposition Zposition Xrotation Yrotation Zrotation
					JOINT leftUpperArm
					{
						OFFSET 10.592373 -0.524597 -2.232116
						CHANNELS 3 Xrotation Yrotation Zrotation
						JOINT leftLowerArm
						{
							OFFSET 27.841488 0.000000 0.000001
							CHANNELS 3 Xrotation Yrotation Zrotation
							JOINT leftHand
							{
								OFFSET 28.328808 0.000000 -0.000000
								CHANNELS 3 Xrotation Yrotation Zrotation
								JOINT leftThumbProximal
								{
									OFFSET 2.466103 -1.576202 2.681698
									CHANNELS 6 Xposition Yposition Zposition Xrotation Yrotation Zrotation
									JOINT leftThumbIntermediate
									{
										OFFSET 3.243317 -1.872528 1.872530
										CHANNELS 3 Xrotation Yrotation Zrotation
										JOINT leftThumbDistal
										{
											OFFSET 2.647881 -1.528763 1.528754
											CHANNELS 6 Xposition Yposition Zposition Xrotation Yrotation Zrotation
											JOINT leftHandThumb4
											{
												OFFSET 1.998924 -1.154083 1.154080
												CHANNELS 6 Xposition Yposition Zposition Xrotation Yrotation Zrotation
												End Site
												{
													OFFSET 1.884041 -1.149155 1.337651
												}
											}
										}
									}
								}
								JOINT leftIndexProximal
								{
									OFFSET 9.109299 -0.518005 2.259900
									CHANNELS 6 Xposition Yposition Zposition Xrotation Yrotation Zrotation
									JOINT leftIndexIntermediate
									{
										OFFSET 3.699997 0.000000 0.000000
										CHANNELS 3 Xrotation Yrotation Zrotation
										JOINT leftIndexDistal
										{
											OFFSET 2.850006 0.000000 0.000000
											CHANNELS 3 Xrotation Yrotation Zrotation
											JOINT leftHandIndex4
											{
												OFFSET 2.774895 0.000000 0.000000
												CHANNELS 3 Xrotation Yrotation Zrotation
												End Site
												{
													OFFSET 2.774902 0.000000 -0.000072
												}
											}
										}
									}
								}
								JOINT leftMiddleProximal
								{
									OFFSET 9.533401 0.000000 0.000000
									CHANNELS 6 Xposition Yposition Zposition Xrotation Yrotation Zrotation
									JOINT leftMiddleIntermediate
									{
										OFFSET 3.699997 0.000000 0.000000
										CHANNELS 3 Xrotation Yrotation Zrotation
										JOINT leftMiddleDistal
										{
											OFFSET 2.949997 0.000000 0.000000
											CHANNELS 3 Xrotation Yrotation Zrotation
											JOINT leftHandMiddle4
											{
												OFFSET 2.952896 0.000000 0.000000
												CHANNELS 3 Xrotation Yrotation Zrotation
												End Site
												{
													OFFSET 2.952904 0.000000 0.000165
												}
											}
										}
									}
								}
								JOINT leftRingProximal
								{
									OFFSET 9.104500 -0.042999 -1.865101
									CHANNELS 6 Xposition Yposition Zposition Xrotation Yrotation Zrotation
									JOINT leftRingIntermediate
									{
										OFFSET 3.149994 0.000000 0.000000
										CHANNELS 3 Xrotation Yrotation Zrotation
										JOINT leftRingDistal
										{
											OFFSET 2.950005 0.000000 0.000000
											CHANNELS 3 Xrotation Yrotation Zrotation
											JOINT leftHandRing4
											{
												OFFSET 2.644302 0.000000 0.000000
												CHANNELS 3 Xrotation Yrotation Zrotation
												End Site
												{
													OFFSET 2.644302 0.000000 0.000083
												}
											}
										}
									}
								}
								JOINT leftLittleProximal
								{
									OFFSET 8.077805 -0.486893 -3.806302
									CHANNELS 6 Xposition Yposition Zposition Xrotation Yrotation Zrotation
									JOINT leftLittleIntermediate
									{
										OFFSET 3.600006 0.000000 0.000000
										CHANNELS 3 Xrotation Yrotation Zrotation
										JOINT leftLittleDistal
										{
											OFFSET 2.099998 0.000000 0.000000
											CHANNELS 3 Xrotation Yrotation Zrotation
											JOINT leftHandPinky4
											{
												OFFSET 2.125496 0.000000 0.000000
												CHANNELS 3 Xrotation Yrotation Zrotation
												End Site
												{
													OFFSET 2.125504 0.000000 -0.001254
												}
											}
										}
									}
								}
							}
						}
					}
				}
			}
		}
	}
	JOINT rightUpperLeg
	{
		OFFSET -8.207800 -6.751701 -1.599544
		CHANNELS 6 Xposition Yposition Zposition Xrotation Yrotation Zrotation
		JOINT rightLowerLeg
		{
			OFFSET 0.000004 -44.370152 0.345934
			CHANNELS 3 Xrotation Yrotation Zrotation
			JOINT rightFoot
			{
				OFFSET 0.000004 -44.423664 -3.043535
				CHANNELS 3 Xrotation Yrotation Zrotation
				JOINT rightToes
				{
					OFFSET 0.000001 -8.728691 10.710592
					CHANNELS 3 Xrotation Yrotation Zrotation
					JOINT rightToesEnd
					{
						OFFSET 0.000000 -0.000665 9.278101
						CHANNELS 3 Xrotation Yrotation Zrotation
						End Site
						{
							OFFSET 0.000000 -0.000665 9.278103
						}
					}
				}
			}
		}
	}
	JOINT leftUpperLeg
	{
		OFFSET 8.207800 -6.751701 -1.599544
		CHANNELS 6 Xposition Yposition Zposition Xrotation Yrotation Zrotation
		JOINT leftLowerLeg
		{
			OFFSET 0.000004 -44.370037 0.346940
			CHANNELS 3 Xrotation Yrotation Zrotation
			JOINT leftFoot
			{
				OFFSET 0.000004 -44.423611 -3.044388
				CHANNELS 3 Xrotation Yrotation Zrotation
				JOINT leftToes
				{
					OFFSET 0.000001 -8.728690 10.710592
					CHANNELS 3 Xrotation Yrotation Zrotation
					JOINT leftToesEnd
					{
						OFFSET 0.000000 -0.000680 9.278101
						CHANNELS 3 Xrotation Yrotation Zrotation
						End Site
						{
							OFFSET 0.000000 -0.000680 9.278101
						}
					}
				}
			}
		}
	}
}
MOTION
Frames: 4
Frame Time: 0.033333
4.693479 103.088837 2.348501 15.026141 14.108507 -9.576433 -0.000002 10.181552 0.131523 -13.030996 -10.469401 2.977613 5.368788 -1.224516 3.642441 5.423059 -1.393192 3.504790 0.000000 16.740355 -2.049020 -0.095058 -2.119362 3.020924 -0.000002 9.617845 1.684975 0.329674 -6.754906 1.506375 0.000000 22.037369 7.501073 -0.000000 -0.000001 -0.000000 -4.570001 11.014845 -2.160837 -0.169701 -3.335080 -3.051478 -2.813039 4.260260 30.322075 0.000215 114.241396 -0.000150 18.427116 -11.839297 21.768107 -2.464805 -1.573972 2.681906 -1.833782 1.170730 -5.851340 5.610162 -19.613332 -0.957272 -2.646272 -1.527799 1.527821 -0.770622 -5.337555 -2.676731 -1.994597 -1.151567 1.151576 0.000001 -0.000001 -0.000000 -9.108308 -0.517868 2.259803 0.109623 -1.232327 10.166868 0.109632 -1.232318 10.166887 0.027466 -0.618600 5.082833 -0.000000 0.000001 0.000003 -9.532509 0.000004 -0.000004 0.109622 -1.232328 10.166868 0.109633 -1.232318 10.166889 0.027466 -0.618602 5.082833 0.000000 -0.000000 0.000001 -9.103598 -0.043092 -1.865098 0.109622 -1.232327 10.166871 0.109632 -1.232321 10.166888 0.027466 -0.618598 5.082836 0.000001 0.000000 0.000002 -8.076703 -0.486733 -3.806300 0.109624 -1.232328 10.166870 0.109633 -1.232325 10.166872 0.027458 -0.618591 5.082852 0.000000 0.000001 0.000003 4.570400 11.014669 -2.160813 0.902928 -0.610109 1.364720 -25.977470 -28.836529 -62.557279 0.000055 -105.047524 0.000053 43.388988 -40.984154 33.721723 2.466099 -1.576201 2.681701 -1.538535 -3.725749 10.696999 4.701728 17.342972 1.440021 2.647884 -1.528740 1.528749 -0.148587 6.261327 2.998857 1.998913 -1.154095 1.154076 -0.000001 -0.000001 -0.000002 9.109296 -0.518008 2.259902 0.028605 0.628490 -5.215313 0.028629 0.628505 -5.215281 0.007155 0.314578 -2.607561 -0.000001 0.000001 0.000004 9.533401 0.000011 0.000004 0.028443 0.626580 -5.199327 0.028787 0.630414 -5.231276 0.007158 0.314571 -2.607573 0.000002 0.000002 0.000006 9.104500 -0.042992 -1.865103 0.028605 0.628491 -5.215313 0.028629 0.628503 -5.215284 0.007154 0.314578 -2.607561 0.000002 0.000001 -0.000001 8.077809 -0.486898 -3.806302 0.380030 4.667575 -4.721120 0.016200 -3.426038 -5.723970 0.007155 0.314581 -2.607564 0.000001 0.000000 0.000002 -8.207802 -6.751714 -1.599544 -19.431366 -5.858760 5.892773 20.608228 6.243812 -1.420725 -0.149519 0.288503 -5.466105 -13.901582 -0.035553 1.872156 -0.000000 0.000002 0.000000 8.207797 -6.751695 -1.599541 -23.549483 7.152243 -1.248771 21.955129 9.699371 1.684287 -9.668718 2.529021 16.831230 -5.227116 0.002144 -0.457526 -0.000000 -0.000005 -0.000000 
5.012089 102.390533 2.346010 15.113554 14.813184 -12.124782 0.000000 10.181539 0.131523 -13.544797 -12.108443 2.956770 6.097750 -1.284797 5.080952 6.192127 -1.520567 4.910409 -0.000003 16.740356 -2.049018 -0.123349 -1.967930 2.511249 0.000001 9.617863 1.684973 0.268140 -6.749073 1.788295 -0.000001 22.037369 7.501080 -0.000000 0.000001 0.000001 -4.570002 11.014873 -2.160838 -0.116853 -3.306392 -2.323243 -10.370065 -0.520703 30.401449 0.000202 110.665471 -0.000130 17.787216 -12.100958 22.447680 -2.464803 -1.573973 2.681911 -1.837340 -2.002734 -6.341646 5.876372 -22.794387 -1.141119 -2.646277 -1.527792 1.527817 -0.634532 -6.923719 -2.837177 -1.994598 -1.151565 1.151580 -0.000001 -0.000005 -0.000000 -9.108285 -0.517869 2.259803 0.109623 -1.232331 10.166868 0.109630 -1.232320 10.166889 0.027465 -0.618600 5.082837 -0.000000 -0.000002 0.000005 -9.532501 0.000014 0.000001 0.109624 -1.232331 10.166868 0.109631 -1.232320 10.166889 0.027466 -0.618600 5.082836 -0.000000 -0.000000 0.000000 -9.103599 -0.043083 -1.865100 0.109623 -1.232331 10.166866 0.109631 -1.232320 10.166891 0.027464 -0.618600 5.082835 0.000000 -0.000001 0.000002 -8.076697 -0.486698 -3.806300 0.109624 -1.232331 10.166868 0.109632 -1.232327 10.166877 0.027459 -0.618591 5.082856 0.000000 -0.000001 0.000002 4.570398 11.014678 -2.160813 0.516181 0.759935 2.623345 -25.177221 -36.650693 -56.358408 0.000039 -106.509260 0.000018 38.066140 -40.591879 34.378907 2.466100 -1.576223 2.681698 -1.539232 -3.724424 8.514440 4.701729 17.342976 1.440023 2.647863 -1.528735 1.528752 -0.148584 6.261332 2.998856 1.998932 -1.154083 1.154079 0.000001 0.000000 0.000003 9.109312 -0.518011 2.259902 0.028631 0.628501 -5.215272 0.028612 0.628502 -5.215308 0.007158 0.314574 -2.607560 0.000001 0.000001 0.000004 9.533403 0.000001 0.000002 0.028455 0.626582 -5.199298 0.028792 0.630419 -5.231288 0.007158 0.314575 -2.607566 0.000002 -0.000000 0.000003 9.104507 -0.043008 -1.865101 0.028631 0.628502 -5.215271 0.028612 0.628501 -5.215309 0.007157 0.314574 -2.607567 0.000000 0.000001 -0.000004 8.077806 -0.486896 -3.806298 0.380042 4.667581 -4.721104 0.016194 -3.426032 -5.723978 0.007145 0.314566 -2.607573 -0.000000 0.000001 0.000006 -8.207799 -6.751705 -1.599542 -19.452701 -10.041935 6.110115 21.868008 7.367833 1.222342 -1.027162 0.309290 -5.132132 -13.849943 -0.005088 0.709479 0.000000 -0.000001 0.000000 8.207800 -6.751701 -1.599548 -30.894534 8.046799 2.607209 33.580386 8.887232 2.867667 -2.450505 -0.618737 7.159940 -15.875277 0.029812 -1.712235 0.000000 0.000002 -0.000000 
5.125799 101.653435 2.164766 14.224558 15.371677 -13.243283 0.000002 10.181556 0.131518 -12.100362 -11.914857 2.359630 6.016289 -1.227636 6.049345 6.136668 -1.461160 5.886012 0.000003 16.740387 -2.049020 -0.127199 -2.008291 2.372802 0.000000 9.617824 1.684975 0.020258 -7.125287 1.665828 -0.000001 22.037354 7.501075 0.000002 -0.000000 0.000000 -4.569998 11.014887 -2.160839 -0.091567 -3.267218 -1.984271 -17.526279 -4.100139 30.491276 0.000233 106.250928 -0.000183 17.471885 -13.329101 21.657562 -2.464799 -1.574013 2.681904 -1.899450 -7.055283 -7.127505 6.479187 -30.183969 -1.523055 -2.646253 -1.527810 1.527811 -0.333600 -10.608351 -3.197715 -1.994603 -1.151569 1.151573 -0.000001 -0.000004 0.000005 -9.108296 -0.517878 2.259800 0.109625 -1.232331 10.166867 0.109632 -1.232320 10.166889 0.027465 -0.618600 5.082834 0.000001 -0.000001 0.000000 -9.532497 0.000001 -0.000005 0.109625 -1.232331 10.166867 0.109632 -1.232320 10.166889 0.027464 -0.618600 5.082836 -0.000000 -0.000000 0.000004 -9.103593 -0.043122 -1.865106 0.109626 -1.232331 10.166867 0.109632 -1.232319 10.166888 0.027463 -0.618600 5.082834 0.000000 0.000000 -0.000004 -8.076705 -0.486745 -3.806304 0.109625 -1.232331 10.166868 0.109630 -1.232327 10.166876 0.027458 -0.618591 5.082851 0.000000 -0.000001 0.000003 4.570402 11.014699 -2.160814 0.161781 1.823482 4.375523 -21.138573 -42.922630 -47.891159 0.000066 -107.918874 0.000064 36.314084 -39.653859 35.910129 2.466103 -1.576185 2.681694 -1.558316 -1.587155 7.141805 4.701726 17.342972 1.440019 2.647888 -1.528748 1.528750 -0.148586 6.261327 2.998856 1.998925 -1.154056 1.154079 0.000001 0.000005 -0.000000 9.109303 -0.517991 2.259894 0.027820 0.619797 -5.142955 0.027858 0.620005 -5.144584 0.006954 0.310309 -2.572239 -0.000000 0.000000 -0.000002 9.533407 0.000008 -0.000003 0.027651 0.617878 -5.126962 0.028023 0.621931 -5.160582 0.006968 0.310306 -2.572236 0.000001 -0.000001 0.000000 9.104505 -0.042995 -1.865104 0.027820 0.619797 -5.142955 0.027858 0.620005 -5.144592 0.006954 0.310308 -2.572243 0.000000 0.000001 0.000002 8.077802 -0.486897 -3.806303 0.374132 4.659320 -4.648476 0.015332 -3.434528 -5.653339 0.006976 0.310313 -2.572234 0.000000 -0.000000 0.000001 -8.207798 -6.751709 -1.599544 -18.488540 -13.152532 6.490781 23.197284 6.760339 2.336667 -3.873674 0.599440 -6.828116 -11.932313 -0.026430 1.615666 0.000000 -0.000000 0.000000 8.207802 -6.751696 -1.599546 -36.684232 10.402448 6.882622 43.605724 -4.139035 4.718152 4.637999 0.159433 -4.541724 -25.708374 -0.076942 2.725647 -0.000000 0.000001 -0.000001 
5.074249 100.870346 1.962790 12.526488 14.778851 -13.170239 0.000002 10.181548 0.131520 -10.661309 -10.603894 1.567890 5.625932 -1.059700 6.700287 5.750556 -1.262853 6.564659 0.000002 16.740379 -2.049023 0.460398 -1.984507 1.959118 -0.000004 9.617821 1.684978 0.635319 -7.316989 0.347996 -0.000000 22.037369 7.501077 -0.000000 0.000000 -0.000001 -4.570000 11.014879 -2.160840 -0.075912 -3.180213 -1.852996 -21.764734 -5.308480 31.018659 0.000275 101.136360 -0.000229 16.469861 -14.262841 19.448375 -2.464786 -1.573983 2.681910 -2.050727 -12.609940 -8.012305 7.232720 -39.523911 -1.914567 -2.646268 -1.527814 1.527816 0.018751 -15.265755 -3.632302 -1.994594 -1.151584 1.151574 -0.000000 -0.000008 -0.000002 -9.108294 -0.517869 2.259806 0.109622 -1.232330 10.166867 0.109631 -1.232321 10.166889 0.027464 -0.618601 5.082832 -0.000002 0.000001 0.000000 -9.532495 0.000004 -0.000004 0.109622 -1.232330 10.166867 0.109633 -1.232319 10.166888 0.027463 -0.618601 5.082834 -0.000002 -0.000001 -0.000001 -9.103604 -0.043091 -1.865100 0.109622 -1.232330 10.166865 0.109632 -1.232321 10.166889 0.027464 -0.618600 5.082833 -0.000004 0.000000 0.000000 -8.076688 -0.486719 -3.806301 0.109623 -1.232330 10.166868 0.109634 -1.232327 10.166875 0.027458 -0.618593 5.082851 -0.000001 -0.000000 -0.000001 4.570399 11.014684 -2.160817 0.100684 1.788230 5.668003 -13.369658 -45.289980 -38.823970 0.000047 -108.852028 0.000030 36.578241 -39.337880 35.947695 2.466098 -1.576198 2.681696 -1.566313 0.031256 6.817637 4.701727 17.342969 1.440018 2.647871 -1.528750 1.528753 -0.148581 6.261332 2.998856 1.998910 -1.154095 1.154073 0.000001 0.000003 -0.000000 9.109298 -0.518001 2.259899 0.055492 0.874338 -7.265035 0.055316 0.872920 -7.253122 0.013844 0.437332 -3.626347 0.000000 -0.000001 0.000001 9.533389 -0.000002 0.000001 0.055250 0.872431 -7.249051 0.055559 0.874822 -7.269101 0.013833 0.437339 -3.626335 -0.000000 -0.000001 -0.000001 9.104494 -0.042986 -1.865105 0.055492 0.874337 -7.265034 0.055315 0.872919 -7.253121 0.013843 0.437331 -3.626346 -0.000000 0.000000 -0.000002 8.077801 -0.486885 -3.806302 0.551678 4.898243 -6.779608 0.045104 -3.181859 -7.759763 0.013839 0.437337 -3.626337 0.000001 -0.000001 -0.000001 -8.207797 -6.751717 -1.599546 -16.956949 -14.360439 6.917422 24.547478 6.707143 2.440687 -8.807786 1.042069 -8.927954 -7.953818 -0.027490 1.646175 -0.000000 0.000001 0.000000 8.207802 -6.751714 -1.599544 -40.335276 9.908355 11.483390 50.062602 -8.525545 7.777452 8.780220 -2.798365 -12.675151 -31.555399 -0.096288 2.987451 -0.000000 -0.000001 -0.000000 
